<?xml version="1.0" encoding="utf-8"?>
<!-- Generator: Adobe Illustrator 19.0.0, SVG Export Plug-In . SVG Version: 6.00 Build 0)  -->
<svg version="1.1" id="Layer_1" xmlns="http://www.w3.org/2000/svg" xmlns:xlink="http://www.w3.org/1999/xlink" x="0px" y="0px"
	 viewBox="0 0 273.9 189.9" style="enable-background:new 0 0 273.9 189.9;" xml:space="preserve">
<style type="text/css">
	.st0{fill:#1A1A1A;}
	.st1{fill:#333333;}
	.st2{fill:#F7FEFF;}
	.st3{fill:#4D4D4D;}
</style>
<path id="XMLID_51_" class="st0" d="M133,88.5h-30.2l-6.6,102h43.4L133,88.5z M125.6,153.9c0,4.2-3.3,7.7-7.5,7.7s-7.5-3.5-7.5-7.7
	v-30.1c0-4.2,3.3-7.7,7.5-7.7s7.5,3.5,7.5,7.7V153.9z"/>
<rect id="XMLID_47_" x="14" y="0" class="st1" width="207.9" height="134"/>
<rect id="XMLID_46_" x="18.3" y="5.9" class="st2" width="199.1" height="112"/>
<g id="XMLID_34_">
	<g id="XMLID_28_">
		<polygon id="XMLID_45_" class="st3" points="153.9,181.2 139.5,181.2 138.4,184.8 155,184.8 		"/>
		<polygon id="XMLID_44_" class="st3" points="9.2,181.2 3.3,181.2 2.2,184.8 10.3,184.8 		"/>
		<polygon id="XMLID_43_" class="st3" points="17.8,181.2 11.9,181.2 10.8,184.8 18.9,184.8 		"/>
		<polygon id="XMLID_42_" class="st3" points="26.3,181.2 20.5,181.2 19.4,184.8 27.4,184.8 		"/>
		<polygon id="XMLID_41_" class="st3" points="80,181.2 74.2,181.2 73.1,184.8 81.1,184.8 		"/>
		<polygon id="XMLID_40_" class="st3" points="88.7,181.2 82.8,181.2 81.7,184.8 89.8,184.8 		"/>
		<polygon id="XMLID_39_" class="st3" points="97.3,181.2 91.4,181.2 90.3,184.8 98.4,184.8 		"/>
		<polygon id="XMLID_38_" class="st3" points="105.9,181.2 100,181.2 99,184.8 107,184.8 		"/>
		<polygon id="XMLID_36_" class="st3" points="116.8,181.2 111,181.2 109.9,184.8 117.9,184.8 		"/>
		<polygon id="XMLID_35_" class="st3" points="125.7,181.2 119.9,181.2 118.8,184.8 126.8,184.8 		"/>
		<polygon id="XMLID_31_" class="st3" points="134.6,181.2 128.8,181.2 127.7,184.8 135.7,184.8 		"/>
		<polygon id="XMLID_32_" class="st3" points="162.5,181.2 156.7,181.2 155.6,184.8 163.6,184.8 		"/>
		<polygon id="XMLID_33_" class="st3" points="171.2,181.2 165.3,181.2 164.2,184.8 172.3,184.8 		"/>
		<polygon id="XMLID_29_" class="st3" points="71.2,181.2 29.2,181.2 28.1,184.8 72.3,184.8 		"/>
	</g>
	<rect id="XMLID_27_" x="0" y="183.5" class="st1" width="174.5" height="6.4"/>
</g>
<path id="XMLID_37_" class="st1" d="M240.5,177.8c-7.4,0-13.4,4.7-13.4,10.7h26.7C253.9,182.5,247.9,177.8,240.5,177.8z"/>
<rect id="XMLID_30_" x="177.9" y="187.9" class="st1" width="96" height="2"/>
</svg>
