<?xml version="1.0" encoding="utf-8"?>
<!-- Generator: Adobe Illustrator 19.0.0, SVG Export Plug-In . SVG Version: 6.00 Build 0)  -->
<svg version="1.1" id="Layer_1" xmlns="http://www.w3.org/2000/svg" xmlns:xlink="http://www.w3.org/1999/xlink" x="0px" y="0px"
	 viewBox="0 0 153.8 111" style="enable-background:new 0 0 153.8 111;" xml:space="preserve">
<style type="text/css">
	.st0{fill:#333333;}
	.st1{fill:#FFFFFF;}
	.st2{fill:#E6E6E6;}
	.st3{fill:#4D4D4D;}
	.st4{fill:#CCCCCC;}
	.st5{fill:#1A1A1A;}
</style>
<path id="XMLID_92_" class="st0" d="M57.7,5.8c-18,0-32.5,14.6-32.5,32.6v72.3h65V38.4C90.2,20.4,75.8,5.8,57.7,5.8z"/>
<circle id="XMLID_39_" class="st1" cx="57.9" cy="39.3" r="26.2"/>
<g id="XMLID_34_">
	<rect id="XMLID_38_" x="109.7" y="15.5" class="st2" width="36.8" height="95.3"/>
	<rect id="XMLID_37_" x="109.7" y="0.5" class="st0" width="36.8" height="14.9"/>
	<path id="XMLID_36_" class="st3" d="M152.1,27.3l-0.9,0.7c-1.8,1.4-4.5,1-5.9-0.8L133,11.1c-1.4-1.8-1-4.5,0.8-5.9l0.9-0.7
		c1.8-1.4,4.5-1,5.9,0.8l12.3,16.1C154.3,23.2,154,25.9,152.1,27.3z"/>
	<circle id="XMLID_35_" class="st4" cx="136.9" cy="8.5" r="3.5"/>
</g>
<g id="XMLID_29_">
	<polygon id="XMLID_33_" class="st2" points="0.4,101.6 0.4,103.2 1.5,103.3 1.6,101.3 28.8,102.6 28.9,101.6 2.1,100.3 0.5,100.2 	
		"/>
	<g id="XMLID_30_">
		
			<rect id="XMLID_32_" x="33.5" y="71.8" transform="matrix(2.763429e-002 -0.9996 0.9996 2.763429e-002 -71.6549 140.5464)" class="st2" width="5.8" height="70.7"/>
		<path id="XMLID_31_" class="st5" d="M31.4,103.4l-0.2,7c0,0-11.7,0.5-15.6,0.4S0,109.6,0,109.6l0.2-7c0,0,11.7-0.5,15.6-0.4
			C19.7,102.3,31.4,103.4,31.4,103.4z"/>
	</g>
</g>
<rect id="XMLID_28_" x="53.1" y="27.6" transform="matrix(0.7071 -0.7071 0.7071 0.7071 -9.3756 49.5121)" class="st0" width="3.9" height="16.9"/>
<rect id="XMLID_27_" x="62.1" y="20.2" transform="matrix(0.7071 0.7071 -0.7071 0.7071 42.1032 -35.6382)" class="st0" width="3.9" height="25.6"/>
</svg>
